<svg xmlns="http://www.w3.org/2000/svg" viewBox="0 0 400 240" fill="none" aria-hidden="true">
  <path d="M268 148c0-36-28-64-64-64-8 0-16 2-24 5-10-40-46-68-90-68-50 0-90 40-90 90 0 49 40 90 90 90h178c33 0 60-27 60-60 0-30-22-56-50-59z" stroke="#22d3ee" stroke-opacity="0.32" stroke-width="1.3" stroke-linejoin="round"/>
  <circle cx="118" cy="168" r="6" stroke="#22d3ee" stroke-opacity="0.45" stroke-width="1.2"/>
  <path d="M124 168h152l32 32" stroke="#22d3ee" stroke-opacity="0.28" stroke-width="1.2" stroke-linecap="round" stroke-linejoin="round"/>
  <path d="M292 168h48" stroke="#22d3ee" stroke-opacity="0.35" stroke-width="1.2" stroke-linecap="round"/>
  <rect x="52" y="52" width="36" height="36" rx="4" stroke="#22d3ee" stroke-opacity="0.22" stroke-width="1"/>
  <rect x="100" y="52" width="36" height="36" rx="4" stroke="#22d3ee" stroke-opacity="0.18" stroke-width="1"/>
  <rect x="148" y="52" width="36" height="36" rx="4" stroke="#22d3ee" stroke-opacity="0.26" stroke-width="1"/>
</svg>
